<svg width="40" height="40" viewBox="0 0 1000 1000" fill="none" xmlns="http://www.w3.org/2000/svg">
  <path d="M346.565 168.115c29.767-13.253 64.643.135 77.896 29.903l80.991 181.909 125.509-166.555c19.61-26.023 56.603-31.222 82.626-11.612s31.223 56.602 11.613 82.626L593.328 459.384l216.425 34.279c32.184 5.097 54.141 35.319 49.044 67.503s-35.319 54.141-67.503 49.044l-197.221-31.237 77.684 174.48c13.253 29.768-.135 64.643-29.902 77.897-29.768 13.253-64.643-.134-77.897-29.902l-84.826-190.52-119.836 159.028c-19.61 26.023-56.603 31.223-82.626 11.613s-31.222-56.603-11.612-82.627L380.902 545.21l-190.123-30.112c-32.183-5.098-54.141-35.32-49.044-67.503s35.32-54.141 67.503-49.044l188.64 29.877-81.216-182.415c-13.253-29.768.135-64.644 29.903-77.898" fill="#1D4ED8"/>
</svg>
