<!DOCTYPE svg PUBLIC "-//W3C//DTD SVG 1.1//EN" "http://www.w3.org/Graphics/SVG/1.1/DTD/svg11.dtd">
<!-- Uploaded to: SVG Repo, www.svgrepo.com, Transformed by: SVG Repo Mixer Tools -->
<svg fill="#b9bad5" width="256px" height="256px" viewBox="0 0 32 32" xmlns="http://www.w3.org/2000/svg">
<g id="SVGRepo_bgCarrier" stroke-width="0"/>
<g id="SVGRepo_tracerCarrier" stroke-linecap="round" stroke-linejoin="round"/>
<g id="SVGRepo_iconCarrier"> <path d="M20.394 13.675c0 1.281-1.044 2.325-2.325 2.325h-4.394v-4.65h4.394c1.281 0 2.325 1.044 2.325 2.325zM31.5 16c0 8.563-6.938 15.5-15.5 15.5s-15.5-6.938-15.5-15.5c0-8.563 6.938-15.5 15.5-15.5s15.5 6.938 15.5 15.5zM23.494 13.675c0-2.994-2.431-5.425-5.425-5.425h-7.494v15.5h3.1v-4.65h4.394c2.994 0 5.425-2.431 5.425-5.425z"/> </g>
</svg>